<?xml version="1.0" encoding="utf-8"?>
<?xml-stylesheet type="text/xsl" href="rss1.xsl"?>
<rss version="2.0" xmlns:atom="http://www.w3.org/2005/Atom" xmlns:content="http://purl.org/rss/1.0/modules/content/" xmlns:dc="http://purl.org/dc/elements/1.1/" xmlns:media="http://search.yahoo.com/mrss/">
<channel>
 <title>Getty</title>
 <link>http://www.gettyimg.com/</link>
 <atom:link href="http://www.gettyimg.com/" rel="self" type="application/rss+xml" />

 
                <item>
                <title><![CDATA[【Instrumentals / Karaoke (lossless)】FLAC - David Guetta [feat. Flo Rida, Nicki Minaj] - Where Them Girls At - [Almost Studio Acapella]]]></title>
                <link><![CDATA[https://sharemania.us/threads/david-guetta-feat-flo-rida-nicki-minaj-where-them-girls-at-almost-studio-acapella.234741/]]></link>
                <description><![CDATA[<article>
<blockquote class="messageText SelectQuoteContainer ugc baseHtml">
<div style="text-align: center"><img src="https://live.staticflickr.com/5235/5910360276_79d7c6d1ee_b.jpg" class="bbCodeImage LbImage" alt="[​IMG]" data-url="https://live.staticflickr.com/5235/5910360276_79d7c6d1ee_b.jpg" style=""> ​</div><br>
This is mostly another post of shame. Two people (<a href="https://1acapella.com/product/david-guetta-nicki-minaj-flo-rida-where-them-girls-at-studio-acapella/" target="_blank" class="externalLink" rel="nofollow">1</a>, <a href="https://rockstaracapellas.com/products/david-guetta-where-them-girls-at-ft-nicki-minaj-flo-rida-acapella" target="_blank" class="externalLink" rel="nofollow">2</a>) are offering FLAC files of the "studio acapella" for a measly $10 (and 10 Euros), so I copied their methods and I'm posting it for free. This is the cleanest acapella that you'll probably ever get unless the raw stems are leaked. I took the song and inverted it on top of the corresponding released instrumental. The main melody's synth was a lot louder in the instrumental due to different mastering compression than with vocals, so I put the file through the algorithm MVSEP to get rid of the synth. Finally I ran the new track through iZotope RX 10 to get rid of crackling caused by distortion in the vocals (it seems that Nicki's mic either ran too hot or David's DAW started crackling.<br>
<br>
The file was stemmed from a 44.1kHz/16-bit WAV file, and is now in FLAC [Level 8]. Have at it.<br>
<br>
<div class="bbCodeBlock bbCodeVfcHH HiddenContent">
<div class="attribution type">Hidden Content:</div>
<blockquote>You must either reply or click 'Like' to see the hidden information contained here.</blockquote>
</div>
<div class="messageTextEndMarker">&nbsp;</div>
</blockquote>
</article>]]></description>
                <author><![CDATA[infurtile]]></author>
                </item>

                
                <item>
                <title><![CDATA[【HD Live Performances】WEB-RiP - Elisa - Buon Natale anche a te 2023 - Canale5 1080p IPTV]]></title>
                <link><![CDATA[https://sharemania.us/threads/elisa-buon-natale-anche-a-te-2023-canale5-1080p-iptv.234740/]]></link>
                <description><![CDATA[<article>
<blockquote class="messageText SelectQuoteContainer ugc baseHtml">
<img src="https://i.imgur.com/UaoDkSB.jpg" class="bbCodeImage LbImage" alt="[​IMG]" data-url="https://i.imgur.com/UaoDkSB.jpg" style=""><br>
<br>
<div class="bbCodeBlock bbCodeCode">
<div class="type">Code:</div>
<pre>General
Complete name                            : Elisa - Buon Natale anche a te 2023 - Canale5 1080p IPTV.mkv
Format                                   : Matroska
Format version                           : Version 4
File size                                : 10.7 GiB
Duration                                 : 3 h 11 min
Overall bit rate                         : 8 021 kb/s
Encoded date                             : UTC 2023-12-26 21:01:44
Writing application                      : mkvmerge v55.0.0 ('Waiting For Space') 64-bit
Writing library                          : libebml v1.4.2 + libmatroska v1.6.4
Video
ID                                       : 1
Format                                   : AVC
Format/Info                              : Advanced Video Codec
Format profile                           : Main@L4.2
Format settings                          : CABAC / 2 Ref Frames
Format settings, CABAC                   : Yes
Format settings, Reference frames        : 2 frames
Codec ID                                 : V_MPEG4/ISO/AVC
Duration                                 : 3 h 11 min
Bit rate                                 : 7 634 kb/s
Width                                    : 1 920 pixels
Height                                   : 1 080 pixels
Display aspect ratio                     : 16:9
Frame rate mode                          : Constant
Frame rate                               : 50.000 FPS
Color space                              : YUV
Chroma subsampling                       : 4:2:0
Bit depth                                : 8 bits
Scan type                                : Progressive
Bits/(Pixel*Frame)                       : 0.074
Stream size                              : 10.2 GiB (95%)
Language                                 : Italian
Default                                  : Yes
Forced                                   : No
Audio #1
ID                                       : 2
Format                                   : E-AC-3
Format/Info                              : Enhanced AC-3
Commercial name                          : Dolby Digital Plus
Codec ID                                 : A_EAC3
Duration                                 : 3 h 11 min
Bit rate mode                            : Constant
Bit rate                                 : 256 kb/s
Channel(s)                               : 6 channels
Channel layout                           : L R C LFE Ls Rs
Sampling rate                            : 48.0 kHz
Frame rate                               : 31.250 FPS (1536 SPF)
Compression mode                         : Lossy
Stream size                              : 350 MiB (3%)
Language                                 : Italian
Service kind                             : Complete Main
Default                                  : Yes
Forced                                   : No
Audio #2
ID                                       : 3
Format                                   : AAC LC
Format/Info                              : Advanced Audio Codec Low Complexity
Codec ID                                 : A_AAC-2
Duration                                 : 3 h 11 min
Bit rate                                 : 126 kb/s
Channel(s)                               : 2 channels
Channel layout                           : L R
Sampling rate                            : 48.0 kHz
Frame rate                               : 46.875 FPS (1024 SPF)
Compression mode                         : Lossy
Delay relative to video                  : 21 ms
Stream size                              : 173 MiB (2%)
Language                                 : Italian
Default                                  : No
Forced                                   : No
</pre>
</div>Pixeldrain:<br>
<div class="bbCodeBlock bbCodeVfcHH HiddenContent">
<div class="attribution type">Hidden Content:</div>
<blockquote>You must reply before you can see the hidden data contained here.</blockquote>
</div>
<div class="messageTextEndMarker">&nbsp;</div>
</blockquote>
</article>]]></description>
                <author><![CDATA[LLAVE1]]></author>
                </item>

                </channel></rss>